<svg width="49" height="81" viewBox="0 0 49 81" fill="none" xmlns="http://www.w3.org/2000/svg">
<path d="M30 12C30.55 12 31.0208 11.8042 31.4125 11.4125C31.8042 11.0208 32 10.55 32 10C32 9.45 31.8042 8.97917 31.4125 8.5875C31.0208 8.19583 30.55 8 30 8C29.45 8 28.9792 8.19583 28.5875 8.5875C28.1958 8.97917 28 9.45 28 10C28 10.55 28.1958 11.0208 28.5875 11.4125C28.9792 11.8042 29.45 12 30 12ZM30 19.35C32.0333 17.4833 33.5417 15.7875 34.525 14.2625C35.5083 12.7375 36 11.3833 36 10.2C36 8.38333 35.4208 6.89583 34.2625 5.7375C33.1042 4.57917 31.6833 4 30 4C28.3167 4 26.8958 4.57917 25.7375 5.7375C24.5792 6.89583 24 8.38333 24 10.2C24 11.3833 24.4917 12.7375 25.475 14.2625C26.4583 15.7875 27.9667 17.4833 30 19.35ZM30 22C27.3167 19.7167 25.3125 17.5958 23.9875 15.6375C22.6625 13.6792 22 11.8667 22 10.2C22 7.7 22.8042 5.70833 24.4125 4.225C26.0208 2.74167 27.8833 2 30 2C32.1167 2 33.9792 2.74167 35.5875 4.225C37.1958 5.70833 38 7.7 38 10.2C38 11.8667 37.3375 13.6792 36.0125 15.6375C34.6875 17.5958 32.6833 19.7167 30 22Z" fill="#D9D9D9" stroke="#1B3C62"/>
<path d="M16 52L2 60V28L16 20M16 52L32 60M16 52V20M32 60L46 52V20L32 28M32 60V28M32 28L16 20" stroke="#1B3C62" stroke-width="4" stroke-linecap="round" stroke-linejoin="round"/>
<path d="M17 76C21.4183 76 25 72.4183 25 68C25 63.5817 21.4183 60 17 60C12.5817 60 9 63.5817 9 68C9 72.4183 12.5817 76 17 76Z" fill="#1B3C62"/>
<path d="M27 78L22.65 73.65M25 68C25 72.4183 21.4183 76 17 76C12.5817 76 9 72.4183 9 68C9 63.5817 12.5817 60 17 60C21.4183 60 25 63.5817 25 68Z" stroke="#D9D9D9" stroke-width="2.5" stroke-linecap="round" stroke-linejoin="round"/>
<line y1="7.5" x2="18" y2="7.5" stroke="white"/>
<path d="M0 14H18M31 66.5H49M31 74.5H49" stroke="white"/>
</svg>
