<svg width="60" height="54" viewBox="0 0 60 54" fill="none" xmlns="http://www.w3.org/2000/svg">
<path d="M47.875 37.625C47.875 38.3543 47.5853 39.0538 47.0695 39.5695C46.5538 40.0853 45.8543 40.375 45.125 40.375H28.625L23.125 45.875V23.875C23.125 23.1457 23.4147 22.4462 23.9305 21.9305C24.4462 21.4147 25.1457 21.125 25.875 21.125H45.125C45.8543 21.125 46.5538 21.4147 47.0695 21.9305C47.5853 22.4462 47.875 23.1457 47.875 23.875V37.625Z" stroke="#1B3C62" stroke-width="3.5" stroke-linecap="round" stroke-linejoin="round"/>
<path d="M4 22.4584V21.0417H6V16.0834C6 15.1036 6.41667 14.2358 7.25 13.4803C8.08333 12.7129 9.16667 12.2112 10.5 11.9751V11.4792C10.5 11.1841 10.6417 10.9362 10.925 10.7355C11.225 10.523 11.5833 10.4167 12 10.4167C12.4167 10.4167 12.7667 10.523 13.05 10.7355C13.35 10.9362 13.5 11.1841 13.5 11.4792V11.9751C14.8333 12.2112 15.9167 12.7129 16.75 13.4803C17.5833 14.2358 18 15.1036 18 16.0834V21.0417H20V22.4584H4ZM12 24.5834C11.45 24.5834 10.975 24.4477 10.575 24.1761C10.1917 23.8928 10 23.5563 10 23.1667H14C14 23.5563 13.8 23.8928 13.4 24.1761C13.0167 24.4477 12.55 24.5834 12 24.5834ZM8 21.0417H16V16.0834C16 15.3042 15.6083 14.6372 14.825 14.0824C14.0417 13.5275 13.1 13.2501 12 13.2501C10.9 13.2501 9.95833 13.5275 9.175 14.0824C8.39167 14.6372 8 15.3042 8 16.0834V21.0417Z" fill="#1B3C62"/>
</svg>
