<svg width="127" height="119" viewBox="0 0 127 119" fill="none" xmlns="http://www.w3.org/2000/svg">
<path d="M73.4702 60.9685L75.6117 63.8841L75.6542 63.8702L75.6709 60.2534L76.4977 59.9848L76.383 64.6102L75.455 64.9118L72.6455 61.2364L73.4702 60.9685ZM81.2039 60.7497C81.3492 61.1969 81.3899 61.6071 81.326 61.9803C81.263 62.3518 81.115 62.6687 80.8821 62.9311C80.6506 63.193 80.3531 63.383 79.9897 63.5011C79.6263 63.6191 79.2733 63.6405 78.9307 63.5651C78.589 63.488 78.2828 63.3179 78.0121 63.0548C77.7424 62.79 77.5351 62.4347 77.3902 61.9889C77.2449 61.5417 77.2038 61.1324 77.2668 60.7609C77.3307 60.3877 77.4785 60.0701 77.71 59.8082C77.9429 59.5458 78.241 59.3556 78.6044 59.2375C78.9678 59.1194 79.3202 59.0983 79.6614 59.1741C80.004 59.2495 80.3102 59.4196 80.58 59.6844C80.8506 59.9475 81.0586 60.3026 81.2039 60.7497ZM80.4481 60.9953C80.3458 60.6805 80.2102 60.4311 80.0414 60.247C79.8734 60.0611 79.685 59.9409 79.4761 59.8863C79.2668 59.8303 79.0493 59.839 78.8237 59.9123C78.5981 59.9856 78.417 60.1064 78.2805 60.2747C78.1436 60.4417 78.0612 60.65 78.0332 60.8995C78.0062 61.1472 78.0438 61.4285 78.1461 61.7433C78.2484 62.058 78.3835 62.3084 78.5514 62.4943C78.7202 62.6784 78.9093 62.7984 79.1187 62.8543C79.3276 62.9089 79.5449 62.8996 79.7705 62.8263C79.9961 62.753 80.1773 62.6328 80.3143 62.4659C80.4508 62.2976 80.5325 62.0895 80.5596 61.8418C80.5875 61.5922 80.5503 61.3101 80.4481 60.9953ZM80.7227 58.612L81.5718 58.3361L83.1835 59.8422L83.2241 59.829L83.6428 57.6632L84.4918 57.3873L83.8276 60.4797L84.3306 62.0279L83.5808 62.2715L83.0778 60.7234L80.7227 58.612ZM86.4821 61.3288L85.6797 61.5896L85.7923 56.9648L86.7203 56.6632L89.5318 60.3379L88.7294 60.5987L86.549 57.6598L86.5166 57.6704L86.4821 61.3288ZM85.9797 59.6931L88.1683 58.982L88.3645 59.5859L86.176 60.2969L85.9797 59.6931ZM91.7458 56.4955C91.6765 56.3971 91.5981 56.3143 91.5105 56.2471C91.4239 56.1782 91.3293 56.1261 91.2267 56.0907C91.1254 56.0549 91.0171 56.0386 90.9016 56.0417C90.7857 56.0435 90.6656 56.0646 90.5413 56.105C90.3184 56.1774 90.138 56.298 90.0002 56.4668C89.8624 56.6355 89.7788 56.8449 89.7495 57.0949C89.7211 57.3431 89.7574 57.6225 89.8584 57.9332C89.9602 58.2467 90.0958 58.4961 90.265 58.6816C90.4343 58.867 90.6252 58.9879 90.8377 59.0444C91.0498 59.0994 91.272 59.0892 91.5043 59.0137C91.7151 58.9452 91.8843 58.8455 92.012 58.7144C92.141 58.5828 92.2232 58.4291 92.2587 58.2533C92.2937 58.0762 92.2786 57.8869 92.2132 57.6856L92.3919 57.6567L91.2652 58.0228L91.0743 57.4351L92.7582 56.888L92.9202 57.3865C93.0357 57.7418 93.0599 58.0737 92.9928 58.3822C92.9258 58.6907 92.7827 58.9583 92.5636 59.1848C92.344 59.41 92.0627 59.5783 91.7195 59.6898C91.3372 59.814 90.9736 59.8373 90.6288 59.7597C90.2849 59.6803 89.9803 59.5082 89.715 59.2434C89.4507 58.9768 89.2474 58.6246 89.1051 58.1869C88.9963 57.8519 88.9463 57.5373 88.9553 57.2432C88.9656 56.9486 89.0267 56.6815 89.1386 56.4421C89.25 56.2012 89.4057 55.9953 89.6055 55.8244C89.8049 55.652 90.0404 55.5217 90.3119 55.4335C90.5416 55.3589 90.7667 55.3231 90.9872 55.3261C91.2073 55.3278 91.4143 55.3651 91.6083 55.438C91.8036 55.5104 91.9787 55.6148 92.1335 55.7512C92.2883 55.8876 92.4144 56.0528 92.5118 56.2467L91.7458 56.4955ZM94.191 58.8241L92.8426 54.674L95.5418 53.797L95.7465 54.4272L93.7992 55.0599L94.1652 56.1866L95.9728 55.5993L96.1776 56.2295L94.37 56.8168L94.7381 57.9496L96.7016 57.3116L96.9064 57.9418L94.191 58.8241Z" fill="#010206"/>
<path d="M36.6205 54.8774L36.5761 58.4947L36.6184 58.5092L38.8084 55.6307L39.6303 55.9138L36.7551 59.5388L35.8325 59.2211L35.8006 54.5951L36.6205 54.8774ZM38.7531 60.2268L40.1738 56.1009L42.8572 57.0249L42.6415 57.6514L40.7055 56.9848L40.3198 58.1049L42.1168 58.7237L41.9011 59.3502L40.104 58.7314L39.7163 59.8576L41.6684 60.5298L41.4527 61.1563L38.7531 60.2268ZM42.1991 61.4133L43.6198 57.2874L45.167 57.8202C45.4839 57.9293 45.7309 58.0759 45.9079 58.2601C46.0862 58.4447 46.1962 58.6553 46.2379 58.892C46.2814 59.1278 46.2578 59.3773 46.1671 59.6406C46.076 59.9052 45.9406 60.1154 45.7607 60.2713C45.5826 60.4263 45.3665 60.5194 45.1124 60.5506C44.8588 60.5804 44.5735 60.5408 44.2565 60.4317L43.1545 60.0522L43.3682 59.4317L44.3694 59.7765C44.5548 59.8403 44.7153 59.867 44.8511 59.8567C44.9873 59.845 45.1007 59.7992 45.1914 59.7192C45.2838 59.6384 45.3552 59.5248 45.4056 59.3784C45.456 59.232 45.4702 59.0971 45.448 58.9738C45.4263 58.8492 45.3657 58.7396 45.266 58.6452C45.1667 58.5495 45.0238 58.4694 44.8371 58.4052L44.1521 58.1693L42.9465 61.6707L42.1991 61.4133ZM44.9743 60.2777L45.3519 62.4989L44.5179 62.2118L44.1584 59.9968L44.9743 60.2777ZM49.1612 60.4642C49.203 60.2818 49.1709 60.1175 49.065 59.9714C48.9604 59.8257 48.7973 59.7147 48.5757 59.6384C48.4199 59.5847 48.2782 59.5622 48.1505 59.5709C48.0229 59.5795 47.9156 59.6139 47.8288 59.6741C47.7419 59.7344 47.68 59.816 47.6431 59.9189C47.6135 60.0049 47.6073 60.0861 47.6245 60.1627C47.6431 60.2397 47.679 60.3121 47.7322 60.38C47.7859 60.4466 47.8493 60.509 47.9224 60.5672C47.9955 60.6254 48.0709 60.6792 48.1485 60.7285L48.5021 60.9583C48.6454 61.0482 48.7782 61.1488 48.9007 61.2601C49.0245 61.3718 49.1272 61.4943 49.209 61.6277C49.2922 61.7615 49.3444 61.9064 49.3658 62.0625C49.3871 62.2186 49.3671 62.3859 49.3056 62.5645C49.2223 62.8063 49.0873 62.9979 48.9003 63.1394C48.7139 63.2795 48.486 63.361 48.2167 63.3839C47.9492 63.406 47.6503 63.3602 47.3199 63.2464C46.9989 63.1359 46.7373 62.9902 46.5351 62.8094C46.3343 62.6291 46.2003 62.4207 46.133 62.1842C46.067 61.9482 46.0758 61.6913 46.1594 61.4136L46.8948 61.6668C46.856 61.8142 46.8592 61.949 46.9042 62.0712C46.9493 62.1934 47.0262 62.2995 47.1349 62.3895C47.245 62.48 47.3779 62.5521 47.5337 62.6057C47.6962 62.6617 47.8469 62.6865 47.9858 62.6802C48.1265 62.6731 48.2467 62.6379 48.3466 62.5746C48.447 62.51 48.5182 62.4189 48.5602 62.3011C48.5959 62.1932 48.5949 62.0937 48.5571 62.0026C48.5198 61.9102 48.4536 61.8212 48.3583 61.7358C48.2648 61.6496 48.1507 61.5622 48.0159 61.4737L47.5881 61.1912C47.2784 60.9869 47.0553 60.7621 46.9189 60.5169C46.7843 60.2707 46.7679 59.9999 46.8696 59.7044C46.9533 59.4613 47.0925 59.2711 47.287 59.1338C47.4828 58.9969 47.7123 58.9174 47.9753 58.8953C48.2387 58.8719 48.5148 58.9098 48.8036 59.0093C49.0964 59.1101 49.3353 59.2495 49.5205 59.4274C49.7074 59.6044 49.833 59.8046 49.8973 60.0281C49.962 60.2502 49.9564 60.4781 49.8804 60.7118L49.1612 60.4642ZM49.573 63.9524L50.9937 59.8265L53.6771 60.7505L53.4614 61.377L51.5254 60.7104L51.1397 61.8305L52.9367 62.4493L52.721 63.0758L50.924 62.457L50.5362 63.5832L52.4883 64.2554L52.2726 64.8819L49.573 63.9524Z" fill="#010206"/>
<path d="M73.7139 19.5C74.9896 19.5 76.0267 19.8581 76.8574 20.5508C77.6834 21.2396 78.0741 22.063 78.0713 23.0488V35.7002H88.2861C90.8501 35.7003 93.0223 36.4593 94.8291 37.9658C96.6333 39.4703 97.5029 41.2411 97.5 43.2988V48.8584C92.2597 51.4297 86.903 53.7605 81.4287 55.8457C75.9017 57.9509 70.0931 59.0027 64 59L62.8604 58.9873C57.1816 58.8638 51.7527 57.8153 46.5713 55.8418C41.097 53.7566 35.7403 51.4271 30.5 48.8584V43.2998C30.5001 41.2388 31.3716 39.4677 33.1758 37.9658C34.87 36.5555 36.8838 35.8 39.2393 35.709L39.7148 35.7002H49.9287V23.0498C49.9288 22.0604 50.3218 21.2368 51.1475 20.5508C51.9267 19.9034 52.8853 19.5488 54.0508 19.5049L54.2871 19.5H73.7139ZM58.6426 35.7002H69.3574V26.5996H58.6426V35.7002ZM40.2139 95.4502H39.7139C37.1496 95.4501 34.9792 94.6922 33.1758 93.1885C31.375 91.6868 30.5031 89.914 30.5 87.8496V59.0938C34.8278 61.2434 39.2836 63.0904 43.8682 64.6318C48.5853 66.2178 53.5107 67.2866 58.6426 67.8447V72.1504H69.3574V67.8447C74.4925 67.2866 79.4195 66.2179 84.1367 64.6318C88.7211 63.0905 93.1752 61.2433 97.5 59.0938V87.8496C97.5 89.9111 96.6294 91.6839 94.8281 93.1885C93.0249 94.6946 90.8536 95.4528 88.2861 95.4502L87.7861 95.4492V99.5H79.0713V95.4502H48.9287V99.5H40.2139V95.4502Z" fill="#EDEEE6" stroke="#002651"/>
<path d="M63.5 0.5C98.3251 0.5 126.5 26.9453 126.5 59.5C126.5 92.0547 98.3251 118.5 63.5 118.5C28.6749 118.5 0.5 92.0547 0.5 59.5C0.5 26.9453 28.6749 0.5 63.5 0.5Z" stroke="#01121C"/>
</svg>
