<svg width="64" height="64" viewBox="0 0 64 64" fill="none" xmlns="http://www.w3.org/2000/svg">
<path d="M32 2.5C47.1412 2.5 59.5 16.1062 59.5 33C59.5 49.8938 47.1412 63.5 32 63.5C16.8588 63.5 4.5 49.8938 4.5 33C4.5 16.1062 16.8588 2.5 32 2.5Z" fill="#D9D9D9" stroke="#002651"/>
<path d="M37.3335 5.83325C37.9628 5.83325 38.4676 6.04069 38.8813 6.45435C39.295 6.86797 39.5019 7.37165 39.5005 7.99829V16.5002H45.3335C46.6662 16.5002 47.7952 16.969 48.7476 17.9211C49.6999 18.8734 50.168 20.0017 50.1665 21.3323V24.9124C47.3263 26.5796 44.4246 28.092 41.4595 29.4465C38.4582 30.8175 35.3066 31.502 32.0005 31.5002C28.6943 31.5002 25.5428 30.8146 22.5415 29.4436C19.5762 28.089 16.6739 26.578 13.8335 24.9124V21.3333C13.8335 20.0006 14.3025 18.8726 15.2544 17.9221C16.1475 17.0305 17.1958 16.5624 18.4204 16.5061L18.6675 16.5002H24.5005V8.00024C24.5005 7.37089 24.7084 6.86709 25.1216 6.45532C25.4839 6.09436 25.9151 5.88946 26.438 5.84302L26.6685 5.83325H37.3335ZM28.8335 16.5002H35.1665V10.1663H28.8335V16.5002ZM19.1665 55.5002H18.6665C17.3337 55.5002 16.2057 55.0315 15.2554 54.0813C14.305 53.1309 13.8352 52.0014 13.8335 50.6663V32.0774C16.1075 33.4089 18.4451 34.5616 20.8481 35.5305C23.4 36.5595 26.0623 37.2609 28.8335 37.6379V40.5002H35.1665V37.6379C37.9394 37.2609 40.6027 36.5595 43.1548 35.5305C45.5574 34.5617 47.8943 33.4096 50.1665 32.0784V50.6663C50.1665 51.9994 49.6983 53.129 48.7476 54.0813C47.7974 55.033 46.6689 55.5018 45.3345 55.5002L44.8335 55.4993V58.1663H40.5005V55.5002H23.5005V58.1663H19.1665V55.5002Z" fill="#D7B6B6" stroke="#002651"/>
</svg>
