<svg width="48" height="59" viewBox="0 0 48 59" fill="none" xmlns="http://www.w3.org/2000/svg">
<path d="M29.8008 46.333C29.3077 47.1348 28.6559 47.8337 27.8789 48.3828C26.6963 49.2185 25.284 49.6677 23.8359 49.667H23.835C22.3868 49.6678 20.9737 49.2186 19.791 48.3828C19.014 47.8337 18.3622 47.1348 17.8691 46.333H29.8008ZM23.835 1C28.5205 1 33.014 2.86166 36.3271 6.1748C39.6402 9.48794 41.502 13.9815 41.502 18.667V28.0762C41.5026 28.6445 41.6353 29.2047 41.8896 29.7129V29.7139L46.4658 38.8682C46.6132 39.1629 46.6828 39.4911 46.668 39.8203C46.6531 40.1495 46.5551 40.4697 46.3818 40.75C46.2085 41.0304 45.9656 41.2614 45.6777 41.4219C45.3899 41.5822 45.0658 41.667 44.7363 41.667H2.93359C2.60404 41.667 2.28005 41.5823 1.99219 41.4219C1.7044 41.2615 1.46234 41.0302 1.28906 40.75C1.1158 40.4697 1.01678 40.1495 1.00195 39.8203C0.987151 39.4912 1.05684 39.1638 1.2041 38.8691L5.7832 29.7139V29.7129C6.03685 29.204 6.16842 28.6429 6.16797 28.0742V18.667C6.16797 13.9816 8.02978 9.48793 11.3428 6.1748C14.6559 2.8617 19.1495 1.00004 23.835 1Z" fill="#D9D9D9" stroke="#1B3C62" stroke-width="2"/>
</svg>
