<svg width="56" height="53" viewBox="0 0 56 53" fill="none" xmlns="http://www.w3.org/2000/svg">
<path d="M37.3332 42V38.6667C37.3332 36.8986 36.6308 35.2029 35.3805 33.9526C34.1303 32.7024 32.4346 32 30.6665 32H17.3332C15.5651 32 13.8694 32.7024 12.6191 33.9526C11.3689 35.2029 10.6665 36.8986 10.6665 38.6667V42" fill="white"/>
<path d="M23.9998 25.3333C27.6817 25.3333 30.6665 22.3486 30.6665 18.6667C30.6665 14.9848 27.6817 12 23.9998 12C20.3179 12 17.3332 14.9848 17.3332 18.6667C17.3332 22.3486 20.3179 25.3333 23.9998 25.3333Z" fill="white"/>
<path d="M37.3332 42V38.6667C37.3332 36.8986 36.6308 35.2029 35.3805 33.9526C34.1303 32.7024 32.4346 32 30.6665 32H17.3332C15.5651 32 13.8694 32.7024 12.6191 33.9526C11.3689 35.2029 10.6665 36.8986 10.6665 38.6667V42M30.6665 18.6667C30.6665 22.3486 27.6817 25.3333 23.9998 25.3333C20.3179 25.3333 17.3332 22.3486 17.3332 18.6667C17.3332 14.9848 20.3179 12 23.9998 12C27.6817 12 30.6665 14.9848 30.6665 18.6667Z" stroke="#1B3C62" stroke-width="2" stroke-linecap="round" stroke-linejoin="round"/>
<path d="M39 28H33V26H39V20H41V26H47V28H41V34H39V28Z" fill="#1B3C62"/>
</svg>
