<svg width="29" height="32" viewBox="0 0 29 32" fill="none" xmlns="http://www.w3.org/2000/svg">
<path d="M27.6667 31V27.6667C27.6667 25.8986 26.9643 24.2029 25.714 22.9526C24.4638 21.7024 22.7681 21 21 21H7.66667C5.89856 21 4.20286 21.7024 2.95262 22.9526C1.70238 24.2029 1 25.8986 1 27.6667V31" fill="white"/>
<path d="M14.3333 14.3333C18.0152 14.3333 21 11.3486 21 7.66667C21 3.98477 18.0152 1 14.3333 1C10.6514 1 7.66667 3.98477 7.66667 7.66667C7.66667 11.3486 10.6514 14.3333 14.3333 14.3333Z" fill="white"/>
<path d="M27.6667 31V27.6667C27.6667 25.8986 26.9643 24.2029 25.714 22.9526C24.4638 21.7024 22.7681 21 21 21H7.66667C5.89856 21 4.20286 21.7024 2.95262 22.9526C1.70238 24.2029 1 25.8986 1 27.6667V31M21 7.66667C21 11.3486 18.0152 14.3333 14.3333 14.3333C10.6514 14.3333 7.66667 11.3486 7.66667 7.66667C7.66667 3.98477 10.6514 1 14.3333 1C18.0152 1 21 3.98477 21 7.66667Z" stroke="#1B3C62" stroke-width="2" stroke-linecap="round" stroke-linejoin="round"/>
</svg>
