<svg width="60" height="73" viewBox="0 0 60 73" fill="none" xmlns="http://www.w3.org/2000/svg">
<path d="M8 1H35C43.8366 1 51 8.16344 51 17V61C51 64.3137 48.3137 67 45 67H7C3.68629 67 1 64.3137 1 61V8C1 4.13401 4.13401 1 8 1Z" stroke="#1B3C62" stroke-width="2"/>
<line x1="13" y1="17.5" x2="37" y2="17.5" stroke="#1B3C62"/>
<line x1="13" y1="25.5" x2="37" y2="25.5" stroke="#1B3C62"/>
<line x1="13" y1="33.5" x2="37" y2="33.5" stroke="#1B3C62"/>
<line x1="13" y1="42.5" x2="37" y2="42.5" stroke="#1B3C62"/>
<g clip-path="url(#clip0_2014_88)">
<path d="M56.3131 50.3783C55.7173 49.7821 55.0098 49.3092 54.2311 48.9865C53.4524 48.6639 52.6177 48.4978 51.7748 48.4978C50.9319 48.4978 50.0973 48.6639 49.3186 48.9865C48.5399 49.3092 47.8324 49.7821 47.2365 50.3783L45.9998 51.6149L44.7631 50.3783C43.5595 49.1746 41.927 48.4984 40.2248 48.4984C38.5226 48.4984 36.8901 49.1746 35.6865 50.3783C34.4828 51.5819 33.8066 53.2144 33.8066 54.9166C33.8066 56.6188 34.4828 58.2513 35.6865 59.4549L45.9998 69.7683L56.3131 59.4549C56.9093 58.8591 57.3822 58.1515 57.7049 57.3728C58.0275 56.5941 58.1936 55.7595 58.1936 54.9166C58.1936 54.0737 58.0275 53.2391 57.7049 52.4604C57.3822 51.6816 56.9093 50.9741 56.3131 50.3783Z" stroke="#D7B6B6" stroke-width="4" stroke-linecap="round" stroke-linejoin="round"/>
</g>
<defs>
<clipPath id="clip0_2014_88">
<rect width="28" height="28" fill="white" transform="translate(32 45)"/>
</clipPath>
</defs>
</svg>
